# Blender 3.6.2
# www.blender.org

o cube
v 0.059730 0.148182 -0.176959
v -0.044578 0.000790 -0.110508
v 0.079478 0.000790 0.084221
v 0.183786 0.148182 0.017769
vn 0.6461 -0.6428 -0.4116
vt 0.328125 0.000000
vt 0.671875 0.000000
vt 0.671875 0.281250
vt 0.328125 0.281250
g Frond
f 3/1/1 2/2/1 1/3/1 4/4/1
o cube
v -0.474528 0.061795 -0.478453
v -0.315876 0.098211 -0.251874
v -0.126744 0.098211 -0.384305
v -0.285396 0.061795 -0.610884
vn 0.0749 -0.9914 0.1069
vt 0.328125 0.562500
vt 0.671875 0.562500
vt 0.671875 1.000000
vt 0.328125 1.000000
g Frond
f 7/5/2 6/6/2 5/7/2 8/8/2
o cube
v -0.207204 0.064802 -0.096674
v -0.105245 -0.008828 0.048938
v 0.083887 -0.008828 -0.083493
v -0.018072 0.064802 -0.229106
vn -0.2195 -0.9239 -0.3135
vt 0.328125 0.000000
vt 0.671875 0.000000
vt 0.671875 0.281250
vt 0.328125 0.281250
g Frond
f 11/9/3 10/10/3 9/11/3 12/12/3
o cube
v -0.315882 0.098211 -0.251883
v -0.207199 0.064800 -0.096668
v -0.018067 0.064800 -0.229099
v -0.126750 0.098211 -0.384315
vn -0.0996 -0.9848 -0.1422
vt 0.328125 0.281250
vt 0.671875 0.281250
vt 0.671875 0.562500
vt 0.328125 0.562500
g Frond
f 15/13/4 14/14/4 13/15/4 16/16/4
o cube
v 0.651460 0.151553 0.024152
v 0.379343 0.163723 -0.036175
v 0.329370 0.163723 0.189240
v 0.601486 0.151553 0.249566
vn -0.0426 -0.9990 -0.0094
vt 0.328125 0.562500
vt 0.671875 0.562500
vt 0.671875 1.000000
vt 0.328125 1.000000
g Frond
f 19/17/5 18/18/5 17/19/5 20/20/5
o cube
v 0.202848 0.097922 -0.075303
v 0.044420 -0.005458 -0.110425
v -0.005553 -0.005458 0.114989
v 0.152874 0.097922 0.150112
vn 0.5246 -0.8434 0.1163
vt 0.328125 0.000000
vt 0.671875 0.000000
vt 0.671875 0.281250
vt 0.328125 0.281250
g Frond
f 23/21/6 22/22/6 21/23/6 24/24/6
o cube
v 0.379357 0.163725 -0.036172
v 0.202840 0.097918 -0.075305
v 0.152867 0.097918 0.150110
v 0.329384 0.163725 0.189243
vn 0.3339 -0.9397 0.0740
vt 0.328125 0.281250
vt 0.671875 0.281250
vt 0.671875 0.562500
vt 0.328125 0.562500
g Frond
f 27/25/7 26/26/7 25/27/7 28/28/7
o cube
v 0.138600 0.139407 -0.638306
v 0.032242 0.163723 -0.381535
v 0.245554 0.163723 -0.293178
v 0.351912 0.139407 -0.549949
vn -0.0334 -0.9962 0.0805
vt 0.328125 0.562500
vt 0.671875 0.562500
vt 0.671875 1.000000
vt 0.328125 1.000000
g Frond
f 31/29/8 30/30/8 29/31/8 32/32/8
o cube
v -0.036939 0.097922 -0.214517
v -0.099039 -0.005458 -0.064595
v 0.114274 -0.005458 0.023761
v 0.176373 0.097922 -0.126160
vn 0.2056 -0.8434 -0.4964
vt 0.328125 0.000000
vt 0.671875 0.000000
vt 0.671875 0.281250
vt 0.328125 0.281250
g Frond
f 35/33/9 34/34/9 33/35/9 36/36/9
o cube
v 0.032248 0.163725 -0.381550
v -0.036942 0.097918 -0.214510
v 0.176370 0.097918 -0.126153
v 0.245561 0.163725 -0.293193
vn 0.1309 -0.9397 -0.3160
vt 0.328125 0.281250
vt 0.671875 0.281250
vt 0.671875 0.562500
vt 0.328125 0.562500
g Frond
f 39/37/10 38/38/10 37/39/10 40/40/10
o cube
v -0.365568 0.091516 0.526803
v -0.175014 0.163724 0.336250
v -0.338277 0.163724 0.172988
v -0.528830 0.091516 0.363541
vn 0.1830 -0.9659 -0.1830
vt 0.328125 0.562500
vt 0.671875 0.562500
vt 0.671875 1.000000
vt 0.328125 1.000000
g Frond
f 43/41/11 42/42/11 41/43/11 44/44/11
o cube
v -0.047189 0.097922 0.208425
v 0.067556 -0.005458 0.093680
v -0.095706 -0.005458 -0.069582
v -0.210451 0.097922 0.045163
vn -0.3799 -0.8434 0.3799
vt 0.328125 0.000000
vt 0.671875 0.000000
vt 0.671875 0.281250
vt 0.328125 0.281250
g Frond
f 47/45/12 46/46/12 45/47/12 48/48/12
o cube
v -0.175031 0.163725 0.336266
v -0.047184 0.097918 0.208420
v -0.210446 0.097918 0.045157
v -0.338293 0.163725 0.173004
vn -0.2418 -0.9397 0.2418
vt 0.328125 0.281250
vt 0.671875 0.281250
vt 0.671875 0.562500
vt 0.328125 0.562500
g Frond
f 51/49/13 50/50/13 49/51/13 52/52/13
o cube
v 0.368714 0.444638 -0.373804
v 0.188466 0.265307 -0.258973
v 0.312522 0.265307 -0.064245
v 0.492770 0.444638 -0.179075
vn 0.5421 -0.7660 -0.3454
vt 0.328125 0.562500
vt 0.671875 0.562500
vt 0.671875 1.000000
vt 0.328125 1.000000
g Frond
f 55/53/14 54/54/14 53/55/14 56/56/14
o cube
v 0.115444 0.154560 0.135471
v 0.115444 0.001914 0.018342
v -0.115444 0.001914 0.018342
v -0.115444 0.154560 0.135471
vn -0.0000 -0.6088 0.7934
vt 0.328125 0.000000
vt 0.671875 0.000000
vt 0.671875 0.281250
vt 0.328125 0.281250
g Frond
f 59/57/15 58/58/15 57/59/15 60/60/15
o cube
v 0.188465 0.265306 -0.258973
v 0.059725 0.148176 -0.176956
v 0.183781 0.148176 0.017773
v 0.312521 0.265306 -0.064244
vn 0.5134 -0.7934 -0.3271
vt 0.328125 0.281250
vt 0.671875 0.281250
vt 0.671875 0.562500
vt 0.328125 0.562500
g Frond
f 63/61/16 62/62/16 61/63/16 64/64/16
o cube
v 0.444652 0.184151 0.481078
v 0.296033 0.147735 0.247794
v 0.101305 0.147735 0.371849
v 0.249923 0.184151 0.605133
vn 0.0701 -0.9914 0.1101
vt 0.328125 0.562500
vt 0.671875 0.562500
vt 0.671875 1.000000
vt 0.328125 1.000000
g Frond
f 67/65/17 66/66/17 65/67/17 68/68/17
o cube
v 0.197446 0.089882 0.093042
v 0.107916 -0.006321 -0.047491
v -0.086812 -0.006321 0.076565
v 0.002717 0.089882 0.217098
vn 0.2686 -0.8660 0.4217
vt 0.328125 0.000000
vt 0.671875 0.000000
vt 0.671875 0.281250
vt 0.328125 0.281250
g Frond
f 71/69/18 70/70/18 69/71/18 72/72/18
o cube
v 0.296037 0.147737 0.247799
v 0.197442 0.089879 0.093036
v 0.002713 0.089879 0.217092
v 0.101308 0.147737 0.371855
vn 0.1616 -0.9537 0.2536
vt 0.328125 0.281250
vt 0.671875 0.281250
vt 0.671875 0.562500
vt 0.328125 0.562500
g Frond
f 75/73/19 74/74/19 73/75/19 76/76/19
o cube
v -0.164320 0.141744 -0.097062
v -0.114576 -0.000113 0.023031
v 0.098736 -0.000113 -0.065326
v 0.048992 0.141744 -0.185419
vn -0.2821 -0.6756 -0.6812
vt 0.328125 0.000000
vt 0.671875 0.000000
vt 0.671875 0.281250
vt 0.328125 0.281250
g Frond
f 79/77/20 78/78/20 77/79/20 80/80/20
o cube
v -0.211650 0.289137 -0.211325
v -0.164321 0.141745 -0.097063
v 0.048992 0.141745 -0.185420
v 0.001663 0.289137 -0.299682
vn -0.2932 -0.6428 -0.7077
vt 0.328125 0.281250
vt 0.671875 0.281250
vt 0.671875 0.562500
vt 0.328125 0.562500
g Frond
f 83/81/21 82/82/21 81/83/21 84/84/21
o cube
v -0.269015 0.524438 -0.349818
v -0.211651 0.289141 -0.211328
v 0.001661 0.289141 -0.299684
v -0.055703 0.524438 -0.438175
vn -0.3228 -0.5373 -0.7792
vt 0.328125 0.562500
vt 0.671875 0.562500
vt 0.671875 1.000000
vt 0.328125 1.000000
g Frond
f 87/85/22 86/86/22 85/87/22 88/88/22
o cube
v -0.437368 0.481134 0.213182
v -0.228716 0.301803 0.166925
v -0.278689 0.301803 -0.058489
v -0.487341 0.481134 -0.012232
vn -0.6276 -0.7660 0.1391
vt 0.328125 0.562500
vt 0.671875 0.562500
vt 0.671875 1.000000
vt 0.328125 1.000000
g Frond
f 91/89/23 90/90/23 89/91/23 92/92/23
o cube
v -0.095897 0.165760 0.137480
v 0.005032 0.003486 0.115105
v -0.044941 0.003486 -0.110310
v -0.145870 0.165760 -0.087935
vn -0.8234 -0.5373 0.1825
vt 0.328125 0.000000
vt 0.671875 0.000000
vt 0.671875 0.281250
vt 0.328125 0.281250
g Frond
f 95/93/24 94/94/24 93/95/24 96/96/24
o cube
v -0.228719 0.301805 0.166926
v -0.095892 0.165753 0.137479
v -0.145865 0.165753 -0.087936
v -0.278692 0.301805 -0.058489
vn -0.6903 -0.7071 0.1530
vt 0.328125 0.281250
vt 0.671875 0.281250
vt 0.671875 0.562500
vt 0.328125 0.562500
g Frond
f 99/97/25 98/98/25 97/99/25 100/100/25
o cube
v 0.115444 0.582988 0.331084
v 0.115444 0.325235 0.224320
v -0.115444 0.325235 0.224320
v -0.115444 0.582988 0.331084
vn -0.0000 -0.3827 0.9239
vt 0.328125 0.562500
vt 0.671875 0.562500
vt 0.671875 1.000000
vt 0.328125 1.000000
g Frond
f 103/101/26 102/102/26 101/103/26 104/104/26
o cube
v 0.115444 0.325232 0.224318
v 0.115444 0.154566 0.135475
v -0.115444 0.154566 0.135475
v -0.115444 0.325232 0.224318
vn -0.0000 -0.4617 0.8870
vt 0.328125 0.281250
vt 0.671875 0.281250
vt 0.671875 0.562500
vt 0.328125 0.562500
g Frond
f 107/105/27 106/106/27 105/107/27 108/108/27
