# Blender 3.6.2
# www.blender.org
o cube
v 0.500000 0.125000 0.500000
v 0.500000 0.125000 -0.500000
v -0.500000 0.125000 -0.500000
v -0.500000 0.125000 0.500000
vn -0.0000 1.0000 -0.0000
vt 0.000000 0.000000
vt 1.000000 0.000000
vt 1.000000 1.000000
vt 0.000000 1.000000
g Leaf
f 4/1/1 1/2/1 2/3/1 3/4/1
o cube
v 0.353553 1.000000 0.353553
v 0.353553 0.000000 0.353553
v -0.353553 1.000000 -0.353553
v -0.353553 -0.000000 -0.353553
vn 0.7071 -0.0000 -0.7071
vt 0.000000 0.000000
vt 1.000000 0.000000
vt 1.000000 1.000000
vt 0.000000 1.000000
g Side
f 6/5/2 8/6/2 7/7/2 5/8/2
o cube
v -0.353553 1.000000 0.353553
v -0.353553 0.000000 0.353553
v 0.353553 1.000000 -0.353553
v 0.353553 -0.000000 -0.353553
vn 0.7071 -0.0000 0.7071
vt 0.000000 0.000000
vt 1.000000 0.000000
vt 1.000000 1.000000
vt 0.000000 1.000000
g Side
f 10/9/3 12/10/3 11/11/3 9/12/3
o cube
v 0.500000 0.187500 0.500000
v 0.500000 0.187500 -0.500000
v -0.500000 0.187500 -0.500000
v -0.500000 0.187500 0.500000
vn -0.0000 1.0000 -0.0000
vt 0.000000 0.000000
vt 1.000000 0.000000
vt 1.000000 1.000000
vt 0.000000 1.000000
g Leaf_Overlay
f 16/13/4 13/14/4 14/15/4 15/16/4
o cube
v -0.337795 1.000000 -0.368639
v -0.337795 -0.000000 -0.368639
v 0.337795 1.000000 0.368639
v 0.337795 0.000000 0.368639
vn -0.7373 -0.0000 0.6756
vt 0.000000 0.000000
vt 1.000000 0.000000
vt 1.000000 1.000000
vt 0.000000 1.000000
g Side
f 18/17/5 20/18/5 19/19/5 17/20/5
