# Blender 3.6.2
# www.blender.org

o cube
v 0.500000 0.001000 0.500000
v 0.500000 0.001000 -0.500000
v -0.500000 -0.002000 -0.500000
v -0.500000 -0.002000 0.500000
vn -0.0000 1.0000 -0.0000
vt 0.125000 0.093750
vt 0.937500 0.093750
vt 0.937500 0.937500
vt 0.125000 0.937500
g Base
f 4/1/1 1/2/1 2/3/1 3/4/1
o cube.001
v 0.125000 0.000000 0.000000
v 0.125000 -0.937500 0.000000
v -0.187500 0.000000 0.000000
v -0.187500 -0.937500 0.000000
vn -0.0000 -0.0000 -1.0000
vt 0.312500 0.000000
vt 0.687500 0.000000
vt 0.687500 1.000000
vt 0.312500 1.000000
g Roots
f 6/5/2 8/6/2 7/7/2 5/8/2
o cube.002
v 0.062500 0.062500 0.435621
v 0.062500 0.000000 0.435621
v -0.125000 0.062500 0.435621
v -0.125000 0.000000 0.435621
vn -0.0000 -0.0000 1.0000
vt 0.000000 0.000000
vt 1.000000 0.000000
vt 1.000000 0.187500
vt 0.000000 0.187500
g Rim_Middle
f 12/9/3 10/10/3 9/11/3 11/12/3
o cube.003
v 0.103171 0.062500 -0.443180
v 0.103171 -0.000000 -0.443180
v -0.131204 0.062500 -0.443180
v -0.131204 -0.000000 -0.443180
vn -0.0000 -0.0000 1.0000
vt 0.000000 0.000000
vt 1.000000 0.000000
vt 1.000000 0.187500
vt 0.000000 0.187500
g Rim_Middle
f 16/13/4 14/14/4 13/15/4 15/16/4
o cube.004
v 0.329643 0.062500 -0.293230
v 0.329643 -0.000000 -0.293230
v 0.092440 0.062500 -0.444346
v 0.092440 -0.000000 -0.444346
vn -0.5373 -0.0000 0.8434
vt 0.000000 0.000000
vt 1.000000 0.000000
vt 1.000000 0.187500
vt 0.000000 0.187500
g Rim_Middle
f 20/17/5 18/18/5 17/19/5 19/20/5
o cube.005
v -0.126422 0.062500 -0.449129
v -0.126422 -0.000000 -0.449129
v -0.297736 0.062500 -0.339990
v -0.297736 -0.000000 -0.339990
vn 0.5373 -0.0000 0.8434
vt 0.625000 0.000000
vt 0.000000 0.000000
vt 0.000000 0.187500
vt 0.625000 0.187500
g Rim_Middle
f 24/21/6 22/22/6 21/23/6 23/24/6
o cube.006
v 0.423393 0.062500 -0.130851
v 0.423393 -0.000000 -0.130851
v 0.329643 0.062500 -0.293230
v 0.329643 -0.000000 -0.293230
vn -0.8660 -0.0000 0.5000
vt 0.000000 0.000000
vt 1.000000 0.000000
vt 1.000000 0.187500
vt 0.000000 0.187500
g Rim_Middle
f 28/25/7 26/26/7 25/27/7 27/28/7
o cube.007
v 0.423402 0.062500 0.119181
v 0.423402 0.000000 0.119181
v 0.423402 0.062500 -0.130819
v 0.423402 -0.000000 -0.130819
vn -1.0000 -0.0000 -0.0000
vt 0.000000 0.000000
vt 1.000000 0.000000
vt 1.000000 0.187500
vt 0.000000 0.187500
g Rim_Middle
f 32/29/8 30/30/8 29/31/8 31/32/8
o cube.008
v 0.289077 0.062500 0.330029
v 0.289077 0.000000 0.330029
v 0.423402 0.062500 0.119181
v 0.423402 0.000000 0.119181
vn -0.8434 -0.0000 -0.5373
vt 0.000000 0.000000
vt 1.000000 0.000000
vt 1.000000 0.187500
vt 0.000000 0.187500
g Rim_Middle
f 36/33/9 34/34/9 33/35/9 35/36/9
o cube.009
v 0.062500 0.062500 0.435683
v 0.062500 0.000000 0.435683
v 0.289077 0.062500 0.330029
v 0.289077 0.000000 0.330029
vn -0.4226 -0.0000 -0.9063
vt 0.000000 0.000000
vt 1.000000 0.000000
vt 1.000000 0.187500
vt 0.000000 0.187500
g Rim_Middle
f 40/37/10 38/38/10 37/39/10 39/40/10
o cube.010
v -0.363476 0.062500 -0.239728
v -0.363476 0.062500 -0.239728
v -0.363476 -0.000000 -0.239728
v -0.363476 -0.000000 -0.239728
v -0.430639 0.062500 -0.134304
v -0.430639 0.062500 -0.134304
v -0.430639 -0.000000 -0.134304
v -0.430639 -0.000000 -0.134304
vn -0.8434 -0.0000 -0.5373
vn -0.0000 -0.0000 -1.0000
vn 0.5373 -0.0000 -0.8434
vn 0.8434 -0.0000 0.5373
vn -0.0000 -0.0000 1.0000
vn -0.5373 -0.0000 0.8434
vn -0.0000 1.0000 -0.0000
vn -0.0000 -1.0000 -0.0000
vt 0.000000 0.812500
vt 0.437500 0.812500
vt 0.437500 1.000000
vt 0.000000 1.000000
vt 0.000000 0.968750
vt 0.062500 1.000000
g Rim_Gap
f 44/41/11 47/42/11 45/43/11 42/44/11
f 43/45/12 44/45/13 42/44/12 41/44/13
f 48/42/14 43/41/14 41/44/14 46/43/14
f 47/45/15 48/45/16 46/44/15 45/44/16
f 46/44/17 41/46/15 42/46/17 45/44/12
f 47/44/18 44/46/15 43/46/18 48/44/12
o cube.011
v -0.433086 0.062500 -0.141533
v -0.433086 -0.000000 -0.141533
v -0.433086 0.062500 0.139717
v -0.433086 0.000000 0.139717
vn 1.0000 -0.0000 -0.0000
vt 0.000000 0.000000
vt 1.000000 0.000000
vt 1.000000 0.187500
vt 0.000000 0.187500
g Rim_Middle
f 52/47/19 50/48/19 49/49/19 51/50/19
o cube.012
v -0.430639 0.062500 0.132487
v -0.430639 0.000000 0.132487
v -0.313105 0.062500 0.316979
v -0.313105 0.000000 0.316979
vn 0.8434 -0.0000 -0.5373
vt 0.000000 0.000000
vt 1.000000 0.000000
vt 1.000000 0.187500
vt 0.000000 0.187500
g Rim_Middle
f 56/51/20 54/52/20 53/53/20 55/54/20
o cube.013
v -0.309492 0.062500 0.318149
v -0.309492 0.000000 0.318149
v -0.125000 0.062500 0.435683
v -0.125000 0.000000 0.435683
vn 0.5373 -0.0000 -0.8434
vt 0.000000 0.000000
vt 1.000000 0.000000
vt 1.000000 0.187500
vt 0.000000 0.187500
g Rim_Middle
f 60/55/21 58/56/21 57/57/21 59/58/21
